<mxfile host="app.diagrams.net" modified="2020-05-13T04:39:25.528Z" agent="5.0 (Windows NT 10.0; Win64; x64) AppleWebKit/537.36 (KHTML, like Gecko) Chrome/81.0.4044.129 Safari/537.36" etag="Yyzziop8ezveCle8wgwX" version="13.1.1" type="github">
  <diagram name="Page-1" id="03018318-947c-dd8e-b7a3-06fadd420f32">
    <mxGraphModel dx="3695" dy="600" grid="1" gridSize="10" guides="1" tooltips="1" connect="1" arrows="1" fold="1" page="1" pageScale="1" pageWidth="1100" pageHeight="850" background="#ffffff" math="0" shadow="0">
      <root>
        <mxCell id="0" />
        <mxCell id="1" parent="0" />
        <mxCell id="677b7b8949515195-9" value="" style="line;strokeWidth=1;html=1;rounded=0;shadow=0;labelBackgroundColor=none;fillColor=none;fontFamily=Verdana;fontSize=14;fontColor=#000000;align=center;comic=1;" parent="1" vertex="1">
          <mxGeometry x="-1080" y="930" width="1060" height="10" as="geometry" />
        </mxCell>
        <mxCell id="ZQMXC3zUCRYEKw2udhes-1" value="" style="whiteSpace=wrap;html=1;rounded=0;shadow=0;labelBackgroundColor=none;strokeColor=#000000;strokeWidth=1;fillColor=none;fontFamily=Verdana;fontSize=12;fontColor=#000000;align=center;comic=1;" parent="1" vertex="1">
          <mxGeometry x="-1080" y="850" width="1060" height="830" as="geometry" />
        </mxCell>
        <mxCell id="ZQMXC3zUCRYEKw2udhes-2" value="Banner" style="whiteSpace=wrap;html=1;rounded=0;shadow=0;labelBackgroundColor=none;strokeWidth=1;fontFamily=Verdana;fontSize=28;align=center;comic=1;" parent="1" vertex="1">
          <mxGeometry x="-1060" y="870" width="190" height="50" as="geometry" />
        </mxCell>
        <mxCell id="ZQMXC3zUCRYEKw2udhes-9" value="Login" style="rounded=1;fillColor=#0057D8;strokeColor=none;html=1;fontColor=#ffffff;align=center;verticalAlign=middle;fontStyle=0;fontSize=12" parent="1" vertex="1">
          <mxGeometry x="-230" y="878.5" width="86" height="33" as="geometry" />
        </mxCell>
        <mxCell id="ZQMXC3zUCRYEKw2udhes-10" value="Register" style="rounded=1;fillColor=#0057D8;strokeColor=none;html=1;fontColor=#ffffff;align=center;verticalAlign=middle;fontStyle=0;fontSize=12" parent="1" vertex="1">
          <mxGeometry x="-130" y="878.5" width="86" height="33" as="geometry" />
        </mxCell>
        <mxCell id="ZQMXC3zUCRYEKw2udhes-11" value="Login" style="text;strokeColor=none;fillColor=none;html=1;fontSize=24;fontStyle=1;verticalAlign=middle;align=center;" parent="1" vertex="1">
          <mxGeometry x="-1050" y="950" width="100" height="40" as="geometry" />
        </mxCell>
        <mxCell id="ZQMXC3zUCRYEKw2udhes-12" value="Username" style="fillColor=none;strokeColor=none;align=left;fontSize=20;" parent="1" vertex="1">
          <mxGeometry width="260" height="40" relative="1" as="geometry">
            <mxPoint x="-1035" y="1000" as="offset" />
          </mxGeometry>
        </mxCell>
        <mxCell id="ZQMXC3zUCRYEKw2udhes-13" value="" style="html=1;shadow=0;dashed=0;shape=mxgraph.bootstrap.rrect;rSize=5;fillColor=none;strokeColor=#999999;align=left;spacing=15;fontSize=14;fontColor=#6C767D;" parent="1" vertex="1">
          <mxGeometry width="800" height="30" relative="1" as="geometry">
            <mxPoint x="-1040" y="1050" as="offset" />
          </mxGeometry>
        </mxCell>
        <mxCell id="ZQMXC3zUCRYEKw2udhes-15" value="Password" style="fillColor=none;strokeColor=none;align=left;fontSize=20;" parent="1" vertex="1">
          <mxGeometry width="260" height="40" relative="1" as="geometry">
            <mxPoint x="-1035" y="1100" as="offset" />
          </mxGeometry>
        </mxCell>
        <mxCell id="ZQMXC3zUCRYEKw2udhes-16" value="" style="html=1;shadow=0;dashed=0;shape=mxgraph.bootstrap.rrect;rSize=5;fillColor=none;strokeColor=#999999;align=left;spacing=15;fontSize=14;fontColor=#6C767D;" parent="1" vertex="1">
          <mxGeometry width="800" height="30" relative="1" as="geometry">
            <mxPoint x="-1040" y="1150" as="offset" />
          </mxGeometry>
        </mxCell>
        <mxCell id="ZQMXC3zUCRYEKw2udhes-18" value="Sign in" style="html=1;shadow=0;dashed=0;shape=mxgraph.bootstrap.rrect;rSize=5;fillColor=#0085FC;strokeColor=none;align=center;fontSize=20;fontColor=#FFFFFF;" parent="1" vertex="1">
          <mxGeometry width="70" height="40" relative="1" as="geometry">
            <mxPoint x="-1035" y="1220" as="offset" />
          </mxGeometry>
        </mxCell>
        <mxCell id="ZQMXC3zUCRYEKw2udhes-92" value="" style="line;strokeWidth=1;html=1;rounded=0;shadow=0;labelBackgroundColor=none;fillColor=none;fontFamily=Verdana;fontSize=14;fontColor=#000000;align=center;comic=1;" parent="1" vertex="1">
          <mxGeometry x="20" y="920" width="1060" height="10" as="geometry" />
        </mxCell>
        <mxCell id="ZQMXC3zUCRYEKw2udhes-93" value="" style="whiteSpace=wrap;html=1;rounded=0;shadow=0;labelBackgroundColor=none;strokeColor=#000000;strokeWidth=1;fillColor=none;fontFamily=Verdana;fontSize=12;fontColor=#000000;align=center;comic=1;" parent="1" vertex="1">
          <mxGeometry x="20" y="850" width="1060" height="830" as="geometry" />
        </mxCell>
        <mxCell id="ZQMXC3zUCRYEKw2udhes-95" value="&lt;font style=&quot;font-size: 20px&quot;&gt;Login&lt;/font&gt;" style="rounded=1;fillColor=#0057D8;strokeColor=none;html=1;fontColor=#ffffff;align=center;verticalAlign=middle;fontStyle=0;fontSize=12" parent="1" vertex="1">
          <mxGeometry x="870" y="868.5" width="86" height="33" as="geometry" />
        </mxCell>
        <mxCell id="ZQMXC3zUCRYEKw2udhes-96" value="&lt;font style=&quot;font-size: 20px&quot;&gt;Register&lt;/font&gt;" style="rounded=1;fillColor=#0057D8;strokeColor=none;html=1;fontColor=#ffffff;align=center;verticalAlign=middle;fontStyle=0;fontSize=12" parent="1" vertex="1">
          <mxGeometry x="970" y="868.5" width="86" height="33" as="geometry" />
        </mxCell>
        <mxCell id="ZQMXC3zUCRYEKw2udhes-104" value="Banner" style="whiteSpace=wrap;html=1;rounded=0;shadow=0;labelBackgroundColor=none;strokeWidth=1;fontFamily=Verdana;fontSize=28;align=center;comic=1;" parent="1" vertex="1">
          <mxGeometry x="30" y="860" width="190" height="50" as="geometry" />
        </mxCell>
        <mxCell id="ZQMXC3zUCRYEKw2udhes-133" value="Username" style="fillColor=none;strokeColor=none;align=left;fontSize=20;" parent="1" vertex="1">
          <mxGeometry x="40" y="997.5" width="260" height="40" as="geometry" />
        </mxCell>
        <mxCell id="ZQMXC3zUCRYEKw2udhes-134" value="" style="html=1;shadow=0;dashed=0;shape=mxgraph.bootstrap.rrect;rSize=5;fillColor=none;strokeColor=#999999;align=left;spacing=15;fontSize=14;fontColor=#6C767D;" parent="1" vertex="1">
          <mxGeometry width="800" height="30" relative="1" as="geometry">
            <mxPoint x="40" y="1037.5" as="offset" />
          </mxGeometry>
        </mxCell>
        <mxCell id="ZQMXC3zUCRYEKw2udhes-136" value="" style="html=1;shadow=0;dashed=0;shape=mxgraph.bootstrap.rrect;rSize=5;fillColor=none;strokeColor=#999999;align=left;spacing=15;fontSize=14;fontColor=#6C767D;" parent="1" vertex="1">
          <mxGeometry width="800" height="30" relative="1" as="geometry">
            <mxPoint x="40" y="1117.5" as="offset" />
          </mxGeometry>
        </mxCell>
        <mxCell id="ZQMXC3zUCRYEKw2udhes-137" value="Password" style="fillColor=none;strokeColor=none;align=left;fontSize=20;" parent="1" vertex="1">
          <mxGeometry width="260" height="40" relative="1" as="geometry">
            <mxPoint x="40" y="1157.5" as="offset" />
          </mxGeometry>
        </mxCell>
        <mxCell id="ZQMXC3zUCRYEKw2udhes-147" value="Password confirmation" style="fillColor=none;strokeColor=none;align=left;fontSize=20;" parent="1" vertex="1">
          <mxGeometry width="260" height="40" relative="1" as="geometry">
            <mxPoint x="40" y="1247.5" as="offset" />
          </mxGeometry>
        </mxCell>
        <mxCell id="ZQMXC3zUCRYEKw2udhes-148" value="" style="html=1;shadow=0;dashed=0;shape=mxgraph.bootstrap.rrect;rSize=5;fillColor=none;strokeColor=#999999;align=left;spacing=15;fontSize=14;fontColor=#6C767D;" parent="1" vertex="1">
          <mxGeometry width="800" height="30" relative="1" as="geometry">
            <mxPoint x="40" y="1287.5" as="offset" />
          </mxGeometry>
        </mxCell>
        <mxCell id="ZQMXC3zUCRYEKw2udhes-196" value="" style="html=1;shadow=0;dashed=0;shape=mxgraph.bootstrap.rrect;rSize=5;fillColor=none;strokeColor=#999999;align=left;spacing=15;fontSize=14;fontColor=#6C767D;" parent="1" vertex="1">
          <mxGeometry x="40" y="1207.5" width="800" height="30" as="geometry">
            <mxPoint x="40" y="1250" as="offset" />
          </mxGeometry>
        </mxCell>
        <mxCell id="ZQMXC3zUCRYEKw2udhes-320" value="" style="whiteSpace=wrap;html=1;rounded=0;shadow=0;labelBackgroundColor=none;strokeColor=#000000;strokeWidth=1;fillColor=none;fontFamily=Verdana;fontSize=12;fontColor=#000000;align=center;comic=1;" parent="1" vertex="1">
          <mxGeometry x="1120" y="850" width="1060" height="830" as="geometry" />
        </mxCell>
        <mxCell id="ZQMXC3zUCRYEKw2udhes-321" value="Banner" style="whiteSpace=wrap;html=1;rounded=0;shadow=0;labelBackgroundColor=none;strokeWidth=1;fontFamily=Verdana;fontSize=28;align=center;comic=1;" parent="1" vertex="1">
          <mxGeometry x="1140" y="868.5" width="190" height="50" as="geometry" />
        </mxCell>
        <mxCell id="ZQMXC3zUCRYEKw2udhes-323" value="" style="line;strokeWidth=1;html=1;rounded=0;shadow=0;labelBackgroundColor=none;fillColor=none;fontFamily=Verdana;fontSize=14;fontColor=#000000;align=center;comic=1;" parent="1" vertex="1">
          <mxGeometry x="1120" y="930" width="1060" height="10" as="geometry" />
        </mxCell>
        <mxCell id="ZQMXC3zUCRYEKw2udhes-324" value="&lt;font style=&quot;font-size: 20px&quot;&gt;Logout&lt;/font&gt;" style="rounded=1;fillColor=#0057D8;strokeColor=none;html=1;fontColor=#ffffff;align=center;verticalAlign=middle;fontStyle=0;fontSize=12" parent="1" vertex="1">
          <mxGeometry x="1990" y="868.5" width="170" height="51.5" as="geometry" />
        </mxCell>
        <mxCell id="ZQMXC3zUCRYEKw2udhes-325" value="Ballot name" style="fillColor=none;strokeColor=none;align=left;fontSize=20;" parent="1" vertex="1">
          <mxGeometry x="1150" y="940" width="260" height="40" as="geometry" />
        </mxCell>
        <mxCell id="ZQMXC3zUCRYEKw2udhes-326" value="" style="html=1;shadow=0;dashed=0;shape=mxgraph.bootstrap.rrect;rSize=5;fillColor=none;strokeColor=#999999;align=left;spacing=15;fontSize=14;fontColor=#6C767D;" parent="1" vertex="1">
          <mxGeometry width="800" height="30" relative="1" as="geometry">
            <mxPoint x="1150" y="980" as="offset" />
          </mxGeometry>
        </mxCell>
        <mxCell id="ZQMXC3zUCRYEKw2udhes-327" value="Ballot end date" style="fillColor=none;strokeColor=none;align=left;fontSize=20;" parent="1" vertex="1">
          <mxGeometry width="260" height="40" relative="1" as="geometry">
            <mxPoint x="1150" y="1020" as="offset" />
          </mxGeometry>
        </mxCell>
        <mxCell id="ZQMXC3zUCRYEKw2udhes-329" value="Max vote" style="fillColor=none;strokeColor=none;align=left;fontSize=20;" parent="1" vertex="1">
          <mxGeometry width="260" height="40" relative="1" as="geometry">
            <mxPoint x="1150" y="1110" as="offset" />
          </mxGeometry>
        </mxCell>
        <mxCell id="ZQMXC3zUCRYEKw2udhes-339" value="Ballot options" style="fillColor=none;strokeColor=none;align=left;fontSize=20;" parent="1" vertex="1">
          <mxGeometry width="260" height="40" relative="1" as="geometry">
            <mxPoint x="1145" y="1290" as="offset" />
          </mxGeometry>
        </mxCell>
        <mxCell id="ZQMXC3zUCRYEKw2udhes-345" value="Month" style="html=1;shadow=0;dashed=0;shape=mxgraph.bootstrap.rrect;rSize=5;fillColor=#ffffff;strokeColor=#999999;align=left;spacing=15;fontSize=18;fontColor=#6C767D;" parent="1" vertex="1">
          <mxGeometry x="1150" y="1070" width="250" height="30" as="geometry" />
        </mxCell>
        <mxCell id="ZQMXC3zUCRYEKw2udhes-346" value="" style="shape=triangle;direction=south;fillColor=#343A40;strokeColor=none;perimeter=none;" parent="ZQMXC3zUCRYEKw2udhes-345" vertex="1">
          <mxGeometry x="1" y="0.5" width="7" height="3" relative="1" as="geometry">
            <mxPoint x="-17" y="1" as="offset" />
          </mxGeometry>
        </mxCell>
        <mxCell id="ZQMXC3zUCRYEKw2udhes-347" value="" style="shape=triangle;direction=north;fillColor=#343A40;strokeColor=none;perimeter=none;" parent="ZQMXC3zUCRYEKw2udhes-345" vertex="1">
          <mxGeometry x="1" y="0.5" width="7" height="3" relative="1" as="geometry">
            <mxPoint x="-17" y="-4" as="offset" />
          </mxGeometry>
        </mxCell>
        <mxCell id="ZQMXC3zUCRYEKw2udhes-356" value="Day" style="html=1;shadow=0;dashed=0;shape=mxgraph.bootstrap.rrect;rSize=5;fillColor=#ffffff;strokeColor=#999999;align=left;spacing=15;fontSize=18;fontColor=#6C767D;" parent="1" vertex="1">
          <mxGeometry x="1430" y="1070" width="250" height="30" as="geometry" />
        </mxCell>
        <mxCell id="ZQMXC3zUCRYEKw2udhes-357" value="" style="shape=triangle;direction=south;fillColor=#343A40;strokeColor=none;perimeter=none;" parent="ZQMXC3zUCRYEKw2udhes-356" vertex="1">
          <mxGeometry x="1" y="0.5" width="7" height="3" relative="1" as="geometry">
            <mxPoint x="-17" y="1" as="offset" />
          </mxGeometry>
        </mxCell>
        <mxCell id="ZQMXC3zUCRYEKw2udhes-358" value="" style="shape=triangle;direction=north;fillColor=#343A40;strokeColor=none;perimeter=none;" parent="ZQMXC3zUCRYEKw2udhes-356" vertex="1">
          <mxGeometry x="1" y="0.5" width="7" height="3" relative="1" as="geometry">
            <mxPoint x="-17" y="-4" as="offset" />
          </mxGeometry>
        </mxCell>
        <mxCell id="ZQMXC3zUCRYEKw2udhes-359" value="Year" style="html=1;shadow=0;dashed=0;shape=mxgraph.bootstrap.rrect;rSize=5;fillColor=#ffffff;strokeColor=#999999;align=left;spacing=15;fontSize=18;fontColor=#6C767D;" parent="1" vertex="1">
          <mxGeometry x="1710" y="1070" width="250" height="30" as="geometry" />
        </mxCell>
        <mxCell id="ZQMXC3zUCRYEKw2udhes-360" value="" style="shape=triangle;direction=south;fillColor=#343A40;strokeColor=none;perimeter=none;" parent="ZQMXC3zUCRYEKw2udhes-359" vertex="1">
          <mxGeometry x="1" y="0.5" width="7" height="3" relative="1" as="geometry">
            <mxPoint x="-17" y="1" as="offset" />
          </mxGeometry>
        </mxCell>
        <mxCell id="ZQMXC3zUCRYEKw2udhes-361" value="" style="shape=triangle;direction=north;fillColor=#343A40;strokeColor=none;perimeter=none;" parent="ZQMXC3zUCRYEKw2udhes-359" vertex="1">
          <mxGeometry x="1" y="0.5" width="7" height="3" relative="1" as="geometry">
            <mxPoint x="-17" y="-4" as="offset" />
          </mxGeometry>
        </mxCell>
        <mxCell id="ZQMXC3zUCRYEKw2udhes-362" value="" style="html=1;shadow=0;dashed=0;shape=mxgraph.bootstrap.rrect;rSize=5;fillColor=none;strokeColor=#999999;align=left;spacing=15;fontSize=14;fontColor=#6C767D;" parent="1" vertex="1">
          <mxGeometry x="1150" y="1160" width="800" height="30" as="geometry">
            <mxPoint x="1150" y="990" as="offset" />
          </mxGeometry>
        </mxCell>
        <mxCell id="ZQMXC3zUCRYEKw2udhes-363" value="File (voter list)" style="fillColor=none;strokeColor=none;align=left;fontSize=20;" parent="1" vertex="1">
          <mxGeometry x="1150" y="1200" width="150" height="40" as="geometry" />
        </mxCell>
        <mxCell id="ZQMXC3zUCRYEKw2udhes-364" value="Choose File" style="fillColor=#FEFEFE;strokeColor=#AAAAAA;fontSize=18;gradientColor=#F0F0F0;" parent="1" vertex="1">
          <mxGeometry x="1150" y="1240" width="120" height="30" as="geometry" />
        </mxCell>
        <mxCell id="ZQMXC3zUCRYEKw2udhes-365" value="No file chosen" style="fillColor=none;strokeColor=none;align=left;fontSize=18;spacing=5;" parent="1" vertex="1">
          <mxGeometry x="1290" y="1240" width="100" height="30" as="geometry" />
        </mxCell>
        <mxCell id="ZQMXC3zUCRYEKw2udhes-367" value="&lt;font style=&quot;font-size: 18px&quot;&gt;Option 1&lt;/font&gt;" style="html=1;shadow=0;dashed=0;shape=mxgraph.bootstrap.rrect;rSize=5;fillColor=none;strokeColor=#999999;align=left;spacing=15;fontSize=14;fontColor=#6C767D;" parent="1" vertex="1">
          <mxGeometry x="1150" y="1340" width="520" height="30" as="geometry" />
        </mxCell>
        <mxCell id="ZQMXC3zUCRYEKw2udhes-368" value="&lt;font style=&quot;font-size: 18px&quot;&gt;Option 2&lt;/font&gt;" style="html=1;shadow=0;dashed=0;shape=mxgraph.bootstrap.rrect;rSize=5;fillColor=none;strokeColor=#999999;align=left;spacing=15;fontSize=14;fontColor=#6C767D;" parent="1" vertex="1">
          <mxGeometry x="1150" y="1400" width="520" height="30" as="geometry" />
        </mxCell>
        <mxCell id="ZQMXC3zUCRYEKw2udhes-369" style="edgeStyle=none;rounded=0;orthogonalLoop=1;jettySize=auto;html=1;exitX=0.25;exitY=1;exitDx=0;exitDy=0;" parent="1" source="ZQMXC3zUCRYEKw2udhes-339" target="ZQMXC3zUCRYEKw2udhes-339" edge="1">
          <mxGeometry relative="1" as="geometry" />
        </mxCell>
        <mxCell id="ZQMXC3zUCRYEKw2udhes-370" value="&lt;font style=&quot;font-size: 18px&quot;&gt;Delete&lt;/font&gt;" style="rounded=1;align=center;fillColor=#F1F2F4;strokeColor=none;html=1;fontColor=#596780;fontSize=18;" parent="1" vertex="1">
          <mxGeometry x="1710" y="1338.5" width="110" height="33" as="geometry" />
        </mxCell>
        <mxCell id="ZQMXC3zUCRYEKw2udhes-372" value="&lt;font style=&quot;font-size: 18px&quot;&gt;Delete&lt;/font&gt;" style="rounded=1;align=center;fillColor=#F1F2F4;strokeColor=none;html=1;fontColor=#596780;fontSize=12" parent="1" vertex="1">
          <mxGeometry x="1710" y="1397" width="110" height="33" as="geometry" />
        </mxCell>
        <mxCell id="ZQMXC3zUCRYEKw2udhes-373" value="&lt;font style=&quot;font-size: 18px&quot;&gt;Add another options&lt;/font&gt;" style="rounded=1;html=1;shadow=0;dashed=0;whiteSpace=wrap;fontSize=18;fillColor=#E6E6E6;align=center;strokeColor=#E6E6E6;fontColor=#333333;arcSize=0;" parent="1" vertex="1">
          <mxGeometry x="1150" y="1450" width="220" height="30" as="geometry" />
        </mxCell>
        <mxCell id="ZQMXC3zUCRYEKw2udhes-374" value="&lt;font style=&quot;font-size: 20px&quot;&gt;Create ballot&lt;/font&gt;" style="rounded=1;fillColor=#0057D8;strokeColor=none;html=1;fontColor=#ffffff;align=center;verticalAlign=middle;fontStyle=0;fontSize=12" parent="1" vertex="1">
          <mxGeometry x="1140" y="1510" width="170" height="51.5" as="geometry" />
        </mxCell>
        <mxCell id="ZQMXC3zUCRYEKw2udhes-375" value="" style="whiteSpace=wrap;html=1;rounded=0;shadow=0;labelBackgroundColor=none;strokeColor=#000000;strokeWidth=1;fillColor=none;fontFamily=Verdana;fontSize=12;fontColor=#000000;align=center;comic=1;" parent="1" vertex="1">
          <mxGeometry x="2220" y="850" width="1060" height="830" as="geometry" />
        </mxCell>
        <mxCell id="ZQMXC3zUCRYEKw2udhes-376" value="Banner" style="whiteSpace=wrap;html=1;rounded=0;shadow=0;labelBackgroundColor=none;strokeWidth=1;fontFamily=Verdana;fontSize=28;align=center;comic=1;" parent="1" vertex="1">
          <mxGeometry x="2240" y="868.5" width="190" height="50" as="geometry" />
        </mxCell>
        <mxCell id="ZQMXC3zUCRYEKw2udhes-377" value="" style="line;strokeWidth=1;html=1;rounded=0;shadow=0;labelBackgroundColor=none;fillColor=none;fontFamily=Verdana;fontSize=14;fontColor=#000000;align=center;comic=1;" parent="1" vertex="1">
          <mxGeometry x="2220" y="930" width="1060" height="10" as="geometry" />
        </mxCell>
        <mxCell id="ZQMXC3zUCRYEKw2udhes-378" value="&lt;font style=&quot;font-size: 20px&quot;&gt;Logout&lt;/font&gt;" style="rounded=1;fillColor=#0057D8;strokeColor=none;html=1;fontColor=#ffffff;align=center;verticalAlign=middle;fontStyle=0;fontSize=12" parent="1" vertex="1">
          <mxGeometry x="3090" y="868.5" width="170" height="51.5" as="geometry" />
        </mxCell>
        <mxCell id="ZQMXC3zUCRYEKw2udhes-379" value="&lt;font style=&quot;font-size: 28px&quot;&gt;All ballots&amp;nbsp;&lt;/font&gt;" style="text;strokeColor=none;fillColor=none;html=1;fontSize=24;fontStyle=1;verticalAlign=middle;align=center;" parent="1" vertex="1">
          <mxGeometry x="2250" y="950" width="180" height="40" as="geometry" />
        </mxCell>
        <mxCell id="ZQMXC3zUCRYEKw2udhes-412" value="&lt;table border=&quot;1&quot; width=&quot;100%&quot; cellpadding=&quot;4&quot; style=&quot;width: 100% ; height: 100% ; border-collapse: collapse ; font-size: 22px&quot;&gt;&lt;tbody style=&quot;font-size: 22px&quot;&gt;&lt;tr style=&quot;background-color: rgb(167 , 201 , 66) ; color: rgb(255 , 255 , 255) ; border: 1px solid rgb(152 , 191 , 33) ; font-size: 22px&quot;&gt;&lt;th align=&quot;left&quot; style=&quot;font-size: 22px&quot;&gt;Ballot ID&lt;/th&gt;&lt;th align=&quot;left&quot; style=&quot;font-size: 22px&quot;&gt;Time registered&lt;/th&gt;&lt;th align=&quot;left&quot; style=&quot;font-size: 22px&quot;&gt;Ballot name&lt;/th&gt;&lt;td&gt;&lt;span style=&quot;font-weight: 700&quot;&gt;Ballot end date&lt;/span&gt;&lt;br&gt;&lt;/td&gt;&lt;td&gt;&lt;span style=&quot;font-weight: 700&quot;&gt;Ballot address&lt;/span&gt;&lt;br&gt;&lt;/td&gt;&lt;td&gt;&lt;b&gt;Action&lt;/b&gt;&lt;/td&gt;&lt;/tr&gt;&lt;tr style=&quot;background-color: rgb(234 , 242 , 211) ; border: 1px solid rgb(152 , 191 , 33) ; font-size: 22px&quot;&gt;&lt;td style=&quot;font-size: 22px&quot;&gt;10&lt;/td&gt;&lt;td style=&quot;font-size: 22px&quot;&gt;06/05/2020&lt;/td&gt;&lt;td style=&quot;font-size: 22px&quot;&gt;Open ballot&lt;/td&gt;&lt;td&gt;10/05/2020&lt;/td&gt;&lt;td&gt;&lt;font style=&quot;box-sizing: border-box ; color: rgb(0 , 123 , 255) ; background-color: rgba(0 , 0 , 0 , 0.05) ; font-size: 20px&quot;&gt;&lt;a href=&quot;https://ropsten.etherscan.io/address/0x15f388F3301B0E560E350371CAD90F9efa570Fa0&quot; style=&quot;box-sizing: border-box ; color: rgb(0 , 123 , 255) ; background-color: rgba(0 , 0 , 0 , 0.05)&quot;&gt;0x15f388F3301B0&lt;/a&gt;....&lt;/font&gt;&lt;br&gt;&lt;/td&gt;&lt;td&gt;&lt;br&gt;&lt;/td&gt;&lt;/tr&gt;&lt;/tbody&gt;&lt;/table&gt;" style="text;html=1;strokeColor=#c0c0c0;fillColor=#ffffff;overflow=fill;rounded=0;fontSize=22;" parent="1" vertex="1">
          <mxGeometry x="2240" y="1070" width="1030" height="245" as="geometry" />
        </mxCell>
        <mxCell id="ZQMXC3zUCRYEKw2udhes-414" value="" style="whiteSpace=wrap;html=1;rounded=0;shadow=0;labelBackgroundColor=none;strokeColor=#000000;strokeWidth=1;fillColor=none;fontFamily=Verdana;fontSize=12;fontColor=#000000;align=center;comic=1;" parent="1" vertex="1">
          <mxGeometry x="-1080" y="1720" width="1060" height="830" as="geometry" />
        </mxCell>
        <mxCell id="ZQMXC3zUCRYEKw2udhes-415" value="Banner" style="whiteSpace=wrap;html=1;rounded=0;shadow=0;labelBackgroundColor=none;strokeWidth=1;fontFamily=Verdana;fontSize=28;align=center;comic=1;" parent="1" vertex="1">
          <mxGeometry x="-1060" y="1738.5" width="190" height="50" as="geometry" />
        </mxCell>
        <mxCell id="ZQMXC3zUCRYEKw2udhes-416" value="" style="line;strokeWidth=1;html=1;rounded=0;shadow=0;labelBackgroundColor=none;fillColor=none;fontFamily=Verdana;fontSize=14;fontColor=#000000;align=center;comic=1;" parent="1" vertex="1">
          <mxGeometry x="-1080" y="1800" width="1060" height="10" as="geometry" />
        </mxCell>
        <mxCell id="ZQMXC3zUCRYEKw2udhes-417" value="&lt;font style=&quot;font-size: 20px&quot;&gt;Logout&lt;/font&gt;" style="rounded=1;fillColor=#0057D8;strokeColor=none;html=1;fontColor=#ffffff;align=center;verticalAlign=middle;fontStyle=0;fontSize=12" parent="1" vertex="1">
          <mxGeometry x="-210" y="1738.5" width="170" height="51.5" as="geometry" />
        </mxCell>
        <mxCell id="ZQMXC3zUCRYEKw2udhes-418" value="&lt;font style=&quot;font-size: 28px&quot;&gt;All ballots&amp;nbsp;&lt;/font&gt;" style="text;strokeColor=none;fillColor=none;html=1;fontSize=24;fontStyle=1;verticalAlign=middle;align=center;" parent="1" vertex="1">
          <mxGeometry x="-1050" y="1820" width="180" height="40" as="geometry" />
        </mxCell>
        <mxCell id="ZQMXC3zUCRYEKw2udhes-419" value="&lt;table border=&quot;1&quot; width=&quot;100%&quot; cellpadding=&quot;3&quot; style=&quot;width: 100% ; height: 100% ; border-collapse: collapse ; font-size: 22px&quot;&gt;&lt;tbody style=&quot;font-size: 22px&quot;&gt;&lt;tr style=&quot;background-color: rgb(167 , 201 , 66) ; color: rgb(255 , 255 , 255) ; border: 1px solid rgb(152 , 191 , 33) ; font-size: 22px&quot;&gt;&lt;th align=&quot;left&quot; style=&quot;font-size: 22px&quot;&gt;Ballot ID&lt;/th&gt;&lt;th align=&quot;left&quot; style=&quot;font-size: 22px&quot;&gt;Ballot created at&lt;/th&gt;&lt;th align=&quot;left&quot; style=&quot;font-size: 22px&quot;&gt;Ballot name&lt;/th&gt;&lt;td&gt;&lt;span style=&quot;font-weight: 700&quot;&gt;Ballot end date&lt;/span&gt;&lt;br&gt;&lt;/td&gt;&lt;td&gt;&lt;span style=&quot;font-weight: 700&quot;&gt;Ballot address&lt;/span&gt;&lt;br&gt;&lt;/td&gt;&lt;td&gt;&lt;span style=&quot;color: rgba(0 , 0 , 0 , 0) ; font-family: monospace ; font-size: 0px ; background-color: rgb(248 , 249 , 250)&quot;&gt;%3CmxGraphModel%3E%3Croot%3E%3CmxCell%20id%3D%220%22%2F%3E%3CmxCell%20id%3D%221%22%20parent%3D%220%22%2F%3E%3CmxCell%20id%3D%222%22%20value%3D%22%22%20style%3D%22whiteSpace%3Dwrap%3Bhtml%3D1%3Brounded%3D0%3Bshadow%3D0%3BlabelBackgroundColor%3Dnone%3BstrokeColor%3D%23000000%3BstrokeWidth%3D1%3BfillColor%3Dnone%3BfontFamily%3DVerdana%3BfontSize%3D12%3BfontColor%3D%23000000%3Balign%3Dcenter%3Bcomic%3D1%3B%22%20vertex%3D%221%22%20parent%3D%221%22%3E%3CmxGeometry%20x%3D%222220%22%20y%3D%22860%22%20width%3D%221060%22%20height%3D%22830%22%20as%3D%22geometry%22%2F%3E%3C%2FmxCell%3E%3CmxCell%20id%3D%223%22%20value%3D%22Banner%22%20style%3D%22whiteSpace%3Dwrap%3Bhtml%3D1%3Brounded%3D0%3Bshadow%3D0%3BlabelBackgroundColor%3Dnone%3BstrokeWidth%3D1%3BfontFamily%3DVerdana%3BfontSize%3D28%3Balign%3Dcenter%3Bcomic%3D1%3B%22%20vertex%3D%221%22%20parent%3D%221%22%3E%3CmxGeometry%20x%3D%222240%22%20y%3D%22878.5%22%20width%3D%22190%22%20height%3D%2250%22%20as%3D%22geometry%22%2F%3E%3C%2FmxCell%3E%3CmxCell%20id%3D%224%22%20value%3D%22%22%20style%3D%22line%3BstrokeWidth%3D1%3Bhtml%3D1%3Brounded%3D0%3Bshadow%3D0%3BlabelBackgroundColor%3Dnone%3BfillColor%3Dnone%3BfontFamily%3DVerdana%3BfontSize%3D14%3BfontColor%3D%23000000%3Balign%3Dcenter%3Bcomic%3D1%3B%22%20vertex%3D%221%22%20parent%3D%221%22%3E%3CmxGeometry%20x%3D%222220%22%20y%3D%22940%22%20width%3D%221060%22%20height%3D%2210%22%20as%3D%22geometry%22%2F%3E%3C%2FmxCell%3E%3CmxCell%20id%3D%225%22%20value%3D%22%26lt%3Bfont%20style%3D%26quot%3Bfont-size%3A%2020px%26quot%3B%26gt%3BLogout%26lt%3B%2Ffont%26gt%3B%22%20style%3D%22rounded%3D1%3BfillColor%3D%230057D8%3BstrokeColor%3Dnone%3Bhtml%3D1%3BfontColor%3D%23ffffff%3Balign%3Dcenter%3BverticalAlign%3Dmiddle%3BfontStyle%3D0%3BfontSize%3D12%22%20vertex%3D%221%22%20parent%3D%221%22%3E%3CmxGeometry%20x%3D%223090%22%20y%3D%22878.5%22%20width%3D%22170%22%20height%3D%2251.5%22%20as%3D%22geometry%22%2F%3E%3C%2FmxCell%3E%3CmxCell%20id%3D%226%22%20value%3D%22%26lt%3Bfont%20style%3D%26quot%3Bfont-size%3A%2028px%26quot%3B%26gt%3BAll%20ballots%26amp%3Bnbsp%3B%26lt%3B%2Ffont%26gt%3B%22%20style%3D%22text%3BstrokeColor%3Dnone%3BfillColor%3Dnone%3Bhtml%3D1%3BfontSize%3D24%3BfontStyle%3D1%3BverticalAlign%3Dmiddle%3Balign%3Dcenter%3B%22%20vertex%3D%221%22%20parent%3D%221%22%3E%3CmxGeometry%20x%3D%222250%22%20y%3D%22960%22%20width%3D%22180%22%20height%3D%2240%22%20as%3D%22geometry%22%2F%3E%3C%2FmxCell%3E%3CmxCell%20id%3D%227%22%20value%3D%22%26lt%3Btable%20border%3D%26quot%3B1%26quot%3B%20width%3D%26quot%3B100%25%26quot%3B%20cellpadding%3D%26quot%3B4%26quot%3B%20style%3D%26quot%3Bwidth%3A%20100%25%20%3B%20height%3A%20100%25%20%3B%20border-collapse%3A%20collapse%20%3B%20font-size%3A%2022px%26quot%3B%26gt%3B%26lt%3Btbody%20style%3D%26quot%3Bfont-size%3A%2022px%26quot%3B%26gt%3B%26lt%3Btr%20style%3D%26quot%3Bbackground-color%3A%20rgb(167%20%2C%20201%20%2C%2066)%20%3B%20color%3A%20rgb(255%20%2C%20255%20%2C%20255)%20%3B%20border%3A%201px%20solid%20rgb(152%20%2C%20191%20%2C%2033)%20%3B%20font-size%3A%2022px%26quot%3B%26gt%3B%26lt%3Bth%20align%3D%26quot%3Bleft%26quot%3B%20style%3D%26quot%3Bfont-size%3A%2022px%26quot%3B%26gt%3BBallot%20ID%26lt%3B%2Fth%26gt%3B%26lt%3Bth%20align%3D%26quot%3Bleft%26quot%3B%20style%3D%26quot%3Bfont-size%3A%2022px%26quot%3B%26gt%3BTime%20registered%26lt%3B%2Fth%26gt%3B%26lt%3Bth%20align%3D%26quot%3Bleft%26quot%3B%20style%3D%26quot%3Bfont-size%3A%2022px%26quot%3B%26gt%3BBallot%20name%26lt%3B%2Fth%26gt%3B%26lt%3Btd%26gt%3B%26lt%3Bspan%20style%3D%26quot%3Bfont-weight%3A%20700%26quot%3B%26gt%3BBallot%20end%20date%26lt%3B%2Fspan%26gt%3B%26lt%3Bbr%26gt%3B%26lt%3B%2Ftd%26gt%3B%26lt%3Btd%26gt%3B%26lt%3Bspan%20style%3D%26quot%3Bfont-weight%3A%20700%26quot%3B%26gt%3BBallot%20address%26lt%3B%2Fspan%26gt%3B%26lt%3Bbr%26gt%3B%26lt%3B%2Ftd%26gt%3B%26lt%3B%2Ftr%26gt%3B%26lt%3Btr%20style%3D%26quot%3Bbackground-color%3A%20rgb(234%20%2C%20242%20%2C%20211)%20%3B%20border%3A%201px%20solid%20rgb(152%20%2C%20191%20%2C%2033)%20%3B%20font-size%3A%2022px%26quot%3B%26gt%3B%26lt%3Btd%20style%3D%26quot%3Bfont-size%3A%2022px%26quot%3B%26gt%3B10%26lt%3B%2Ftd%26gt%3B%26lt%3Btd%20style%3D%26quot%3Bfont-size%3A%2022px%26quot%3B%26gt%3B06%2F05%2F2020%26lt%3B%2Ftd%26gt%3B%26lt%3Btd%20style%3D%26quot%3Bfont-size%3A%2022px%26quot%3B%26gt%3BOpen%20ballot%26lt%3B%2Ftd%26gt%3B%26lt%3Btd%26gt%3B10%2F05%2F2020%26lt%3B%2Ftd%26gt%3B%26lt%3Btd%26gt%3B%26lt%3Bfont%20style%3D%26quot%3Bbox-sizing%3A%20border-box%20%3B%20color%3A%20rgb(0%20%2C%20123%20%2C%20255)%20%3B%20background-color%3A%20rgba(0%20%2C%200%20%2C%200%20%2C%200.05)%20%3B%20font-size%3A%2020px%26quot%3B%26gt%3B%26lt%3Ba%20href%3D%26quot%3Bhttps%3A%2F%2Fropsten.etherscan.io%2Faddress%2F0x15f388F3301B0E560E350371CAD90F9efa570Fa0%26quot%3B%20style%3D%26quot%3Bbox-sizing%3A%20border-box%20%3B%20color%3A%20rgb(0%20%2C%20123%20%2C%20255)%20%3B%20background-color%3A%20rgba(0%20%2C%200%20%2C%200%20%2C%200.05)%26quot%3B%26gt%3B0x15f388F3301B0%26lt%3B%2Fa%26gt%3B....%26lt%3B%2Ffont%26gt%3B%26lt%3Bbr%26gt%3B%26lt%3B%2Ftd%26gt%3B%26lt%3B%2Ftr%26gt%3B%26lt%3B%2Ftbody%26gt%3B%26lt%3B%2Ftable%26gt%3B%22%20style%3D%22text%3Bhtml%3D1%3BstrokeColor%3D%23c0c0c0%3BfillColor%3D%23ffffff%3Boverflow%3Dfill%3Brounded%3D0%3BfontSize%3D22%3B%22%20vertex%3D%221%22%20parent%3D%221%22%3E%3CmxGeometry%20x%3D%222230%22%20y%3D%221007.5%22%20width%3D%221040%22%20height%3D%22245%22%20as%3D%22geometry%22%2F%3E%3C%2FmxCell%3E%3C%2Froot%3E%3C%2FmxGraphModel%3E&lt;/span&gt;&lt;b&gt;Action&lt;/b&gt;&lt;/td&gt;&lt;/tr&gt;&lt;tr style=&quot;background-color: rgb(234 , 242 , 211) ; border: 1px solid rgb(152 , 191 , 33) ; font-size: 22px&quot;&gt;&lt;td style=&quot;font-size: 22px&quot;&gt;10&lt;/td&gt;&lt;td style=&quot;font-size: 22px&quot;&gt;06/05/2020&lt;/td&gt;&lt;td style=&quot;font-size: 22px&quot;&gt;Open ballot&lt;/td&gt;&lt;td&gt;10/05/2020&lt;/td&gt;&lt;td&gt;&lt;font style=&quot;box-sizing: border-box ; color: rgb(0 , 123 , 255) ; background-color: rgba(0 , 0 , 0 , 0.05) ; font-size: 20px&quot;&gt;&lt;a href=&quot;https://ropsten.etherscan.io/address/0x15f388F3301B0E560E350371CAD90F9efa570Fa0&quot; style=&quot;box-sizing: border-box ; color: rgb(0 , 123 , 255) ; background-color: rgba(0 , 0 , 0 , 0.05)&quot;&gt;0x15f388F3301B0&lt;/a&gt;....&lt;/font&gt;&lt;br&gt;&lt;/td&gt;&lt;td&gt;&lt;br&gt;&lt;/td&gt;&lt;/tr&gt;&lt;/tbody&gt;&lt;/table&gt;" style="text;html=1;strokeColor=#c0c0c0;fillColor=#ffffff;overflow=fill;rounded=0;fontSize=22;" parent="1" vertex="1">
          <mxGeometry x="-1070" y="1867.5" width="1040" height="245" as="geometry" />
        </mxCell>
        <mxCell id="ZQMXC3zUCRYEKw2udhes-420" value="&lt;font&gt;&lt;font style=&quot;font-size: 20px&quot;&gt;Vote&lt;/font&gt;&lt;br&gt;&lt;/font&gt;" style="rounded=1;fillColor=#0057D8;align=center;strokeColor=none;html=1;fontColor=#ffffff;fontSize=12" parent="1" vertex="1">
          <mxGeometry x="-120" y="2029.5" width="80" height="33" as="geometry" />
        </mxCell>
        <mxCell id="ZQMXC3zUCRYEKw2udhes-425" value="Email" style="fillColor=none;strokeColor=none;align=left;fontSize=20;" parent="1" vertex="1">
          <mxGeometry width="260" height="40" relative="1" as="geometry">
            <mxPoint x="40" y="1077.5" as="offset" />
          </mxGeometry>
        </mxCell>
        <mxCell id="ZQMXC3zUCRYEKw2udhes-426" value="Signup" style="text;strokeColor=none;fillColor=none;html=1;fontSize=24;fontStyle=1;verticalAlign=middle;align=center;" parent="1" vertex="1">
          <mxGeometry x="30" y="950" width="110" height="40" as="geometry" />
        </mxCell>
        <mxCell id="ZQMXC3zUCRYEKw2udhes-430" value="" style="whiteSpace=wrap;html=1;rounded=0;shadow=0;labelBackgroundColor=none;strokeColor=#000000;strokeWidth=1;fillColor=none;fontFamily=Verdana;fontSize=12;fontColor=#000000;align=center;comic=1;" parent="1" vertex="1">
          <mxGeometry x="20" y="1710" width="1060" height="830" as="geometry" />
        </mxCell>
        <mxCell id="ZQMXC3zUCRYEKw2udhes-431" value="Banner" style="whiteSpace=wrap;html=1;rounded=0;shadow=0;labelBackgroundColor=none;strokeWidth=1;fontFamily=Verdana;fontSize=28;align=center;comic=1;" parent="1" vertex="1">
          <mxGeometry x="40" y="1728.5" width="190" height="50" as="geometry" />
        </mxCell>
        <mxCell id="ZQMXC3zUCRYEKw2udhes-432" value="" style="line;strokeWidth=1;html=1;rounded=0;shadow=0;labelBackgroundColor=none;fillColor=none;fontFamily=Verdana;fontSize=14;fontColor=#000000;align=center;comic=1;" parent="1" vertex="1">
          <mxGeometry x="20" y="1790" width="1060" height="10" as="geometry" />
        </mxCell>
        <mxCell id="ZQMXC3zUCRYEKw2udhes-433" value="&lt;font style=&quot;font-size: 20px&quot;&gt;Logout&lt;/font&gt;" style="rounded=1;fillColor=#0057D8;strokeColor=none;html=1;fontColor=#ffffff;align=center;verticalAlign=middle;fontStyle=0;fontSize=12" parent="1" vertex="1">
          <mxGeometry x="890" y="1728.5" width="170" height="51.5" as="geometry" />
        </mxCell>
        <mxCell id="ZQMXC3zUCRYEKw2udhes-434" value="&lt;font style=&quot;font-size: 38px&quot;&gt;Open ballot&lt;/font&gt;" style="text;strokeColor=none;fillColor=none;html=1;fontSize=38;fontStyle=1;verticalAlign=middle;align=center;" parent="1" vertex="1">
          <mxGeometry x="240" y="1810" width="550" height="100" as="geometry" />
        </mxCell>
        <mxCell id="ZQMXC3zUCRYEKw2udhes-435" value="Ballot ends at Sept 9 2020, midnight" style="text;strokeColor=none;fillColor=none;html=1;fontSize=38;fontStyle=0;verticalAlign=middle;align=center;" parent="1" vertex="1">
          <mxGeometry x="240" y="1900" width="540" height="70" as="geometry" />
        </mxCell>
        <mxCell id="ZQMXC3zUCRYEKw2udhes-436" value="&lt;font style=&quot;font-size: 30px&quot;&gt;Remaining time: 122d 20h 21m 59s&lt;/font&gt;" style="text;strokeColor=none;fillColor=none;html=1;fontSize=38;fontStyle=1;verticalAlign=middle;align=center;" parent="1" vertex="1">
          <mxGeometry x="255" y="1962.5" width="520" height="100" as="geometry" />
        </mxCell>
        <mxCell id="ZQMXC3zUCRYEKw2udhes-437" value="&lt;font style=&quot;font-size: 30px&quot;&gt;You are allowed to select 1 option from below:&lt;/font&gt;" style="text;strokeColor=none;fillColor=none;html=1;fontSize=38;fontStyle=1;verticalAlign=middle;align=center;" parent="1" vertex="1">
          <mxGeometry x="30" y="2085" width="720" height="100" as="geometry" />
        </mxCell>
        <mxCell id="ZQMXC3zUCRYEKw2udhes-438" value="&lt;font style=&quot;font-size: 25px&quot;&gt;Option 1&lt;/font&gt;" style="strokeWidth=1;shadow=0;dashed=0;align=center;html=1;shape=mxgraph.mockup.forms.rrect;rSize=0;fillColor=#eeeeee;strokeColor=#999999;gradientColor=#cccccc;align=left;spacingLeft=4;fontSize=17;fontColor=#666666;labelPosition=right;" parent="1" vertex="1">
          <mxGeometry x="60" y="2200" width="15" height="15" as="geometry" />
        </mxCell>
        <mxCell id="ZQMXC3zUCRYEKw2udhes-445" value="&lt;font style=&quot;font-size: 25px&quot;&gt;Option 2&lt;br&gt;&lt;/font&gt;" style="strokeWidth=1;shadow=0;dashed=0;align=center;html=1;shape=mxgraph.mockup.forms.rrect;rSize=0;fillColor=#eeeeee;strokeColor=#999999;gradientColor=#cccccc;align=left;spacingLeft=4;fontSize=17;fontColor=#666666;labelPosition=right;" parent="1" vertex="1">
          <mxGeometry x="60" y="2240" width="15" height="15" as="geometry" />
        </mxCell>
        <mxCell id="ZQMXC3zUCRYEKw2udhes-447" value="&lt;font style=&quot;font-size: 25px&quot;&gt;Option 3&lt;/font&gt;" style="strokeWidth=1;shadow=0;dashed=0;align=center;html=1;shape=mxgraph.mockup.forms.rrect;rSize=0;fillColor=#eeeeee;strokeColor=#999999;gradientColor=#cccccc;align=left;spacingLeft=4;fontSize=17;fontColor=#666666;labelPosition=right;" parent="1" vertex="1">
          <mxGeometry x="60" y="2280" width="15" height="15" as="geometry" />
        </mxCell>
        <mxCell id="ZQMXC3zUCRYEKw2udhes-448" value="&lt;font style=&quot;font-size: 25px&quot;&gt;Option 4&lt;/font&gt;" style="strokeWidth=1;shadow=0;dashed=0;align=center;html=1;shape=mxgraph.mockup.forms.rrect;rSize=0;fillColor=#eeeeee;strokeColor=#999999;gradientColor=#cccccc;align=left;spacingLeft=4;fontSize=17;fontColor=#666666;labelPosition=right;" parent="1" vertex="1">
          <mxGeometry x="60" y="2320" width="15" height="15" as="geometry" />
        </mxCell>
        <mxCell id="ZQMXC3zUCRYEKw2udhes-451" value="&lt;font style=&quot;font-size: 24px&quot;&gt;Cast your vote&lt;/font&gt;" style="rounded=1;fillColor=#0057D8;strokeColor=none;html=1;fontColor=#ffffff;align=center;verticalAlign=middle;fontStyle=0;fontSize=12" parent="1" vertex="1">
          <mxGeometry x="750" y="2335" width="280" height="51.5" as="geometry" />
        </mxCell>
        <mxCell id="ZQMXC3zUCRYEKw2udhes-457" value="" style="whiteSpace=wrap;html=1;rounded=0;shadow=0;labelBackgroundColor=none;strokeColor=#000000;strokeWidth=1;fillColor=none;fontFamily=Verdana;fontSize=12;fontColor=#000000;align=center;comic=1;" parent="1" vertex="1">
          <mxGeometry x="1120" y="1710" width="1060" height="1100" as="geometry" />
        </mxCell>
        <mxCell id="ZQMXC3zUCRYEKw2udhes-458" value="Banner" style="whiteSpace=wrap;html=1;rounded=0;shadow=0;labelBackgroundColor=none;strokeWidth=1;fontFamily=Verdana;fontSize=28;align=center;comic=1;" parent="1" vertex="1">
          <mxGeometry x="1140" y="1728.5" width="190" height="50" as="geometry" />
        </mxCell>
        <mxCell id="ZQMXC3zUCRYEKw2udhes-459" value="" style="line;strokeWidth=1;html=1;rounded=0;shadow=0;labelBackgroundColor=none;fillColor=none;fontFamily=Verdana;fontSize=14;fontColor=#000000;align=center;comic=1;" parent="1" vertex="1">
          <mxGeometry x="1120" y="1790" width="1060" height="10" as="geometry" />
        </mxCell>
        <mxCell id="ZQMXC3zUCRYEKw2udhes-460" value="&lt;font style=&quot;font-size: 20px&quot;&gt;Logout&lt;/font&gt;" style="rounded=1;fillColor=#0057D8;strokeColor=none;html=1;fontColor=#ffffff;align=center;verticalAlign=middle;fontStyle=0;fontSize=12" parent="1" vertex="1">
          <mxGeometry x="1990" y="1728.5" width="170" height="51.5" as="geometry" />
        </mxCell>
        <mxCell id="ZQMXC3zUCRYEKw2udhes-467" value="&lt;font style=&quot;font-size: 38px&quot;&gt;Open ballot&lt;/font&gt;" style="text;strokeColor=none;fillColor=none;html=1;fontSize=38;fontStyle=1;verticalAlign=middle;align=center;" parent="1" vertex="1">
          <mxGeometry x="1390" y="1808.75" width="550" height="71.25" as="geometry" />
        </mxCell>
        <mxCell id="ZQMXC3zUCRYEKw2udhes-468" value="Ballot ends at Sept 9 2020, midnight" style="text;strokeColor=none;fillColor=none;html=1;fontSize=38;fontStyle=0;verticalAlign=middle;align=center;" parent="1" vertex="1">
          <mxGeometry x="1395" y="1880" width="540" height="70" as="geometry" />
        </mxCell>
        <mxCell id="ZQMXC3zUCRYEKw2udhes-469" value="&lt;font style=&quot;font-size: 30px&quot;&gt;Remaining time: 122d 20h 21m 59s&lt;/font&gt;" style="text;strokeColor=none;fillColor=none;html=1;fontSize=38;fontStyle=1;verticalAlign=middle;align=center;" parent="1" vertex="1">
          <mxGeometry x="1430" y="1940" width="520" height="60.5" as="geometry" />
        </mxCell>
        <mxCell id="ZQMXC3zUCRYEKw2udhes-470" value="&lt;font style=&quot;font-size: 38px&quot;&gt;Ballot statistics&lt;/font&gt;" style="text;strokeColor=none;fillColor=none;html=1;fontSize=38;fontStyle=1;verticalAlign=middle;align=center;" parent="1" vertex="1">
          <mxGeometry x="1140" y="2006" width="375" height="64" as="geometry" />
        </mxCell>
        <mxCell id="ZQMXC3zUCRYEKw2udhes-471" value="" style="shape=image;html=1;verticalAlign=top;verticalLabelPosition=bottom;labelBackgroundColor=#ffffff;imageAspect=0;aspect=fixed;image=https://cdn2.iconfinder.com/data/icons/circle-icons-1/64/piechart-128.png;fontSize=20;" parent="1" vertex="1">
          <mxGeometry x="1270" y="2070" width="139.5" height="139.5" as="geometry" />
        </mxCell>
        <mxCell id="ZQMXC3zUCRYEKw2udhes-472" value="" style="shape=image;html=1;verticalAlign=top;verticalLabelPosition=bottom;labelBackgroundColor=#ffffff;imageAspect=0;aspect=fixed;image=https://cdn2.iconfinder.com/data/icons/circle-icons-1/64/piechart-128.png;fontSize=20;" parent="1" vertex="1">
          <mxGeometry x="1825" y="2070" width="140" height="140" as="geometry" />
        </mxCell>
        <mxCell id="ZQMXC3zUCRYEKw2udhes-473" value="&lt;font style=&quot;font-size: 24px&quot;&gt;Get your personal data&lt;/font&gt;" style="rounded=1;fillColor=#0057D8;strokeColor=none;html=1;fontColor=#ffffff;align=center;verticalAlign=middle;fontStyle=0;fontSize=12" parent="1" vertex="1">
          <mxGeometry x="1160" y="2243.5" width="280" height="51.5" as="geometry" />
        </mxCell>
        <mxCell id="ZQMXC3zUCRYEKw2udhes-474" value="Ballot name" style="fillColor=none;strokeColor=none;align=left;fontSize=16;" parent="1" vertex="1">
          <mxGeometry x="1160" y="2320" width="260" height="26.5" as="geometry" />
        </mxCell>
        <mxCell id="ZQMXC3zUCRYEKw2udhes-490" value="Open ballot" style="fillColor=none;strokeColor=none;align=left;fontSize=16;fontStyle=2" parent="1" vertex="1">
          <mxGeometry x="1160" y="2346.5" width="260" height="23.5" as="geometry" />
        </mxCell>
        <mxCell id="ZQMXC3zUCRYEKw2udhes-491" value="Ballot address" style="fillColor=none;strokeColor=none;align=left;fontSize=16;" parent="1" vertex="1">
          <mxGeometry x="1160" y="2400" width="260" height="20" as="geometry" />
        </mxCell>
        <mxCell id="ZQMXC3zUCRYEKw2udhes-492" value="" style="line;strokeWidth=1;html=1;rounded=0;shadow=0;labelBackgroundColor=none;fillColor=none;fontFamily=Verdana;fontSize=14;fontColor=#000000;align=center;comic=1;" parent="1" vertex="1">
          <mxGeometry x="1160" y="2376.5" width="920" height="10" as="geometry" />
        </mxCell>
        <mxCell id="ZQMXC3zUCRYEKw2udhes-493" value="0x95a9489f1dEF8Ec2C58b02a1AEF0A29d3bB046dC" style="fillColor=none;strokeColor=none;align=left;fontSize=16;fontStyle=2" parent="1" vertex="1">
          <mxGeometry x="1160" y="2420" width="500" height="30" as="geometry" />
        </mxCell>
        <mxCell id="ZQMXC3zUCRYEKw2udhes-494" value="Maximum vote cast allowed" style="fillColor=none;strokeColor=none;align=left;fontSize=16;" parent="1" vertex="1">
          <mxGeometry x="1160" y="2470" width="260" height="20" as="geometry" />
        </mxCell>
        <mxCell id="ZQMXC3zUCRYEKw2udhes-495" value="Voters are allowed to cast at most 1 vote(s)" style="fillColor=none;strokeColor=none;align=left;fontSize=16;fontStyle=2" parent="1" vertex="1">
          <mxGeometry x="1160" y="2490" width="500" height="20" as="geometry" />
        </mxCell>
        <mxCell id="ZQMXC3zUCRYEKw2udhes-498" value="Voter address" style="fillColor=none;strokeColor=none;align=left;fontSize=16;" parent="1" vertex="1">
          <mxGeometry x="1160" y="2530" width="260" height="30" as="geometry" />
        </mxCell>
        <mxCell id="ZQMXC3zUCRYEKw2udhes-507" value="" style="line;strokeWidth=1;html=1;rounded=0;shadow=0;labelBackgroundColor=none;fillColor=none;fontFamily=Verdana;fontSize=14;fontColor=#000000;align=center;comic=1;" parent="1" vertex="1">
          <mxGeometry x="1160" y="2450" width="920" height="10" as="geometry" />
        </mxCell>
        <mxCell id="ZQMXC3zUCRYEKw2udhes-508" value="" style="line;strokeWidth=1;html=1;rounded=0;shadow=0;labelBackgroundColor=none;fillColor=none;fontFamily=Verdana;fontSize=14;fontColor=#000000;align=center;comic=1;" parent="1" vertex="1">
          <mxGeometry x="1160" y="2520" width="920" height="10" as="geometry" />
        </mxCell>
        <mxCell id="ZQMXC3zUCRYEKw2udhes-509" value="" style="line;strokeWidth=1;html=1;rounded=0;shadow=0;labelBackgroundColor=none;fillColor=none;fontFamily=Verdana;fontSize=14;fontColor=#000000;align=center;comic=1;" parent="1" vertex="1">
          <mxGeometry x="1160" y="2590" width="920" height="10" as="geometry" />
        </mxCell>
        <mxCell id="ZQMXC3zUCRYEKw2udhes-510" value="Voted index" style="fillColor=none;strokeColor=none;align=left;fontSize=16;" parent="1" vertex="1">
          <mxGeometry x="1160" y="2600" width="260" height="30" as="geometry" />
        </mxCell>
        <mxCell id="ZQMXC3zUCRYEKw2udhes-511" value="1" style="fillColor=none;strokeColor=none;align=left;fontSize=16;fontStyle=2" parent="1" vertex="1">
          <mxGeometry x="1160" y="2630" width="500" height="20" as="geometry" />
        </mxCell>
        <mxCell id="ZQMXC3zUCRYEKw2udhes-512" value="" style="line;strokeWidth=1;html=1;rounded=0;shadow=0;labelBackgroundColor=none;fillColor=none;fontFamily=Verdana;fontSize=14;fontColor=#000000;align=center;comic=1;" parent="1" vertex="1">
          <mxGeometry x="1160" y="2660" width="920" height="10" as="geometry" />
        </mxCell>
        <UserObject label="&lt;span style=&quot;font-size: 16px ; font-style: italic ; text-align: left&quot;&gt;&lt;font color=&quot;#3333ff&quot;&gt;0x03a708e426B70e15839a9F579E95C6ACbca7F345&lt;/font&gt;&lt;/span&gt;" link="0x03a708e426B70e15839a9F579E95C6ACbca7F345" id="ZQMXC3zUCRYEKw2udhes-513">
          <mxCell style="text;html=1;strokeColor=none;fillColor=none;whiteSpace=wrap;align=center;verticalAlign=middle;fontColor=#0000EE;fontStyle=4;" parent="1" vertex="1">
            <mxGeometry x="1160" y="2560" width="390" height="30" as="geometry" />
          </mxCell>
        </UserObject>
        <mxCell id="ZQMXC3zUCRYEKw2udhes-514" value="Voted option name" style="fillColor=none;strokeColor=none;align=left;fontSize=16;" parent="1" vertex="1">
          <mxGeometry x="1160" y="2670" width="260" height="30" as="geometry" />
        </mxCell>
        <mxCell id="ZQMXC3zUCRYEKw2udhes-515" value="Option 1" style="fillColor=none;strokeColor=none;align=left;fontSize=16;fontStyle=2" parent="1" vertex="1">
          <mxGeometry x="1160" y="2700" width="500" height="20" as="geometry" />
        </mxCell>
        <mxCell id="ZQMXC3zUCRYEKw2udhes-518" value="Transaction hash" style="fillColor=none;strokeColor=none;align=left;fontSize=16;" parent="1" vertex="1">
          <mxGeometry x="1160" y="2740" width="260" height="30" as="geometry" />
        </mxCell>
        <UserObject label="&lt;a href=&quot;https://ropsten.etherscan.io/tx/0xd05793e4bfe7a9e90becab403502388d43edaf4212ce267d9341650dd0fdab77&quot; style=&quot;box-sizing: border-box ; color: rgb(0 , 123 , 255) ; background-color: rgb(255 , 255 , 255) ; font-family: , &amp;#34;blinkmacsystemfont&amp;#34; , &amp;#34;segoe ui&amp;#34; , &amp;#34;roboto&amp;#34; , &amp;#34;helvetica neue&amp;#34; , &amp;#34;arial&amp;#34; , &amp;#34;noto sans&amp;#34; , sans-serif , &amp;#34;apple color emoji&amp;#34; , &amp;#34;segoe ui emoji&amp;#34; , &amp;#34;segoe ui symbol&amp;#34; , &amp;#34;noto color emoji&amp;#34; ; font-size: 16px ; text-align: left&quot;&gt;0xd05793e4bfe7a9e90becab403502388d43edaf4212ce267d9341650dd0fdab77&lt;/a&gt;" link="0x03a708e426B70e15839a9F579E95C6ACbca7F345" id="ZQMXC3zUCRYEKw2udhes-519">
          <mxCell style="text;html=1;strokeColor=none;fillColor=none;whiteSpace=wrap;align=center;verticalAlign=middle;fontColor=#0000EE;fontStyle=4;" parent="1" vertex="1">
            <mxGeometry x="1160" y="2770" width="570" height="30" as="geometry" />
          </mxCell>
        </UserObject>
        <mxCell id="ZQMXC3zUCRYEKw2udhes-520" value="" style="line;strokeWidth=1;html=1;rounded=0;shadow=0;labelBackgroundColor=none;fillColor=none;fontFamily=Verdana;fontSize=14;fontColor=#000000;align=center;comic=1;" parent="1" vertex="1">
          <mxGeometry x="1160" y="2730" width="920" height="10" as="geometry" />
        </mxCell>
        <mxCell id="T_FNu8_mERVC_th2VJMV-2" value="&lt;font&gt;&lt;font style=&quot;font-size: 20px&quot;&gt;View&lt;/font&gt;&lt;br&gt;&lt;/font&gt;" style="rounded=1;fillColor=#0057D8;align=center;strokeColor=none;html=1;fontColor=#ffffff;fontSize=12;arcSize=0;" parent="1" vertex="1">
          <mxGeometry x="3180" y="1237" width="80" height="33" as="geometry" />
        </mxCell>
        <mxCell id="T_FNu8_mERVC_th2VJMV-3" value="&lt;font style=&quot;font-size: 20px&quot;&gt;Add new ballot&lt;/font&gt;" style="rounded=1;fillColor=#0057D8;strokeColor=none;html=1;fontColor=#ffffff;align=center;verticalAlign=middle;fontStyle=0;fontSize=12" parent="1" vertex="1">
          <mxGeometry x="2240" y="997.5" width="170" height="51.5" as="geometry" />
        </mxCell>
        <mxCell id="MUtR5dcC4J1pQOiIU3f5-1" value="" style="whiteSpace=wrap;html=1;rounded=0;shadow=0;labelBackgroundColor=none;strokeColor=#000000;strokeWidth=1;fillColor=none;fontFamily=Verdana;fontSize=12;fontColor=#000000;align=center;comic=1;" vertex="1" parent="1">
          <mxGeometry x="2230" y="1710" width="1060" height="820" as="geometry" />
        </mxCell>
        <mxCell id="MUtR5dcC4J1pQOiIU3f5-2" value="Banner" style="whiteSpace=wrap;html=1;rounded=0;shadow=0;labelBackgroundColor=none;strokeWidth=1;fontFamily=Verdana;fontSize=28;align=center;comic=1;" vertex="1" parent="1">
          <mxGeometry x="2250" y="1728.5" width="190" height="50" as="geometry" />
        </mxCell>
        <mxCell id="MUtR5dcC4J1pQOiIU3f5-3" value="" style="line;strokeWidth=1;html=1;rounded=0;shadow=0;labelBackgroundColor=none;fillColor=none;fontFamily=Verdana;fontSize=14;fontColor=#000000;align=center;comic=1;" vertex="1" parent="1">
          <mxGeometry x="2230" y="1790" width="1060" height="10" as="geometry" />
        </mxCell>
        <mxCell id="MUtR5dcC4J1pQOiIU3f5-4" value="&lt;font style=&quot;font-size: 20px&quot;&gt;Logout&lt;/font&gt;" style="rounded=1;fillColor=#0057D8;strokeColor=none;html=1;fontColor=#ffffff;align=center;verticalAlign=middle;fontStyle=0;fontSize=12" vertex="1" parent="1">
          <mxGeometry x="3100" y="1728.5" width="170" height="51.5" as="geometry" />
        </mxCell>
        <mxCell id="MUtR5dcC4J1pQOiIU3f5-5" value="&lt;font style=&quot;font-size: 38px&quot;&gt;Open ballot&lt;/font&gt;" style="text;strokeColor=none;fillColor=none;html=1;fontSize=38;fontStyle=1;verticalAlign=middle;align=center;" vertex="1" parent="1">
          <mxGeometry x="2500" y="1808.75" width="550" height="71.25" as="geometry" />
        </mxCell>
        <mxCell id="MUtR5dcC4J1pQOiIU3f5-6" value="Ballot ends at Sept 9 2020, midnight" style="text;strokeColor=none;fillColor=none;html=1;fontSize=38;fontStyle=0;verticalAlign=middle;align=center;" vertex="1" parent="1">
          <mxGeometry x="2505" y="1880" width="540" height="70" as="geometry" />
        </mxCell>
        <mxCell id="MUtR5dcC4J1pQOiIU3f5-7" value="&lt;font style=&quot;font-size: 30px&quot;&gt;Remaining time: 122d 20h 21m 59s&lt;/font&gt;" style="text;strokeColor=none;fillColor=none;html=1;fontSize=38;fontStyle=1;verticalAlign=middle;align=center;" vertex="1" parent="1">
          <mxGeometry x="2540" y="1940" width="520" height="60.5" as="geometry" />
        </mxCell>
        <mxCell id="MUtR5dcC4J1pQOiIU3f5-8" value="&lt;font style=&quot;font-size: 38px&quot;&gt;Ballot statistics&lt;/font&gt;" style="text;strokeColor=none;fillColor=none;html=1;fontSize=38;fontStyle=1;verticalAlign=middle;align=center;" vertex="1" parent="1">
          <mxGeometry x="2250" y="2006" width="375" height="64" as="geometry" />
        </mxCell>
        <mxCell id="MUtR5dcC4J1pQOiIU3f5-9" value="" style="shape=image;html=1;verticalAlign=top;verticalLabelPosition=bottom;labelBackgroundColor=#ffffff;imageAspect=0;aspect=fixed;image=https://cdn2.iconfinder.com/data/icons/circle-icons-1/64/piechart-128.png;fontSize=20;" vertex="1" parent="1">
          <mxGeometry x="2380" y="2070" width="139.5" height="139.5" as="geometry" />
        </mxCell>
        <mxCell id="MUtR5dcC4J1pQOiIU3f5-10" value="" style="shape=image;html=1;verticalAlign=top;verticalLabelPosition=bottom;labelBackgroundColor=#ffffff;imageAspect=0;aspect=fixed;image=https://cdn2.iconfinder.com/data/icons/circle-icons-1/64/piechart-128.png;fontSize=20;" vertex="1" parent="1">
          <mxGeometry x="2935" y="2070" width="140" height="140" as="geometry" />
        </mxCell>
        <mxCell id="MUtR5dcC4J1pQOiIU3f5-34" value="&lt;font style=&quot;font-size: 38px&quot;&gt;Voted addresses&lt;/font&gt;" style="text;strokeColor=none;fillColor=none;html=1;fontSize=38;fontStyle=1;verticalAlign=middle;align=center;" vertex="1" parent="1">
          <mxGeometry x="2269.75" y="2320" width="360" height="64" as="geometry" />
        </mxCell>
        <mxCell id="ZQMXC3zUCRYEKw2udhes-19" parent="0" />
        <mxCell id="ZQMXC3zUCRYEKw2udhes-60" value="Banner" style="whiteSpace=wrap;html=1;rounded=0;shadow=0;labelBackgroundColor=none;strokeWidth=1;fontFamily=Verdana;fontSize=28;align=center;comic=1;" parent="ZQMXC3zUCRYEKw2udhes-19" vertex="1">
          <mxGeometry x="-1060" y="870" width="190" height="50" as="geometry" />
        </mxCell>
        <mxCell id="ZQMXC3zUCRYEKw2udhes-61" value="Login" style="rounded=1;fillColor=#0057D8;strokeColor=none;html=1;fontColor=#ffffff;align=center;verticalAlign=middle;fontStyle=0;fontSize=12" parent="ZQMXC3zUCRYEKw2udhes-19" vertex="1">
          <mxGeometry x="-230" y="878.5" width="86" height="33" as="geometry" />
        </mxCell>
        <mxCell id="ZQMXC3zUCRYEKw2udhes-62" value="Register" style="rounded=1;fillColor=#0057D8;strokeColor=none;html=1;fontColor=#ffffff;align=center;verticalAlign=middle;fontStyle=0;fontSize=12" parent="ZQMXC3zUCRYEKw2udhes-19" vertex="1">
          <mxGeometry x="-130" y="878.5" width="86" height="33" as="geometry" />
        </mxCell>
        <mxCell id="ZQMXC3zUCRYEKw2udhes-150" parent="0" />
        <mxCell id="ZQMXC3zUCRYEKw2udhes-188" value="Banner" style="whiteSpace=wrap;html=1;rounded=0;shadow=0;labelBackgroundColor=none;strokeWidth=1;fontFamily=Verdana;fontSize=28;align=center;comic=1;" parent="ZQMXC3zUCRYEKw2udhes-150" vertex="1">
          <mxGeometry x="-1060" y="870" width="190" height="50" as="geometry" />
        </mxCell>
        <mxCell id="ZQMXC3zUCRYEKw2udhes-189" value="Login" style="rounded=1;fillColor=#0057D8;strokeColor=none;html=1;fontColor=#ffffff;align=center;verticalAlign=middle;fontStyle=0;fontSize=12" parent="ZQMXC3zUCRYEKw2udhes-150" vertex="1">
          <mxGeometry x="-230" y="878.5" width="86" height="33" as="geometry" />
        </mxCell>
        <mxCell id="ZQMXC3zUCRYEKw2udhes-190" value="Register" style="rounded=1;fillColor=#0057D8;strokeColor=none;html=1;fontColor=#ffffff;align=center;verticalAlign=middle;fontStyle=0;fontSize=12" parent="ZQMXC3zUCRYEKw2udhes-150" vertex="1">
          <mxGeometry x="-130" y="878.5" width="86" height="33" as="geometry" />
        </mxCell>
        <mxCell id="ZQMXC3zUCRYEKw2udhes-194" value="Signup" style="html=1;shadow=0;dashed=0;shape=mxgraph.bootstrap.rrect;rSize=5;fillColor=#0085FC;strokeColor=none;align=center;fontSize=20;fontColor=#FFFFFF;" parent="ZQMXC3zUCRYEKw2udhes-150" vertex="1">
          <mxGeometry width="70" height="40" relative="1" as="geometry">
            <mxPoint x="40" y="1347.5" as="offset" />
          </mxGeometry>
        </mxCell>
        <UserObject label="&lt;span style=&quot;font-size: 20px; font-style: italic; text-align: left;&quot;&gt;&lt;font color=&quot;#3333ff&quot; style=&quot;font-size: 20px;&quot;&gt;0x03a708e426B70e15839a9F579E95C6ACbca7F345&lt;/font&gt;&lt;/span&gt;" link="0x03a708e426B70e15839a9F579E95C6ACbca7F345" id="MUtR5dcC4J1pQOiIU3f5-36">
          <mxCell style="text;html=1;strokeColor=none;fillColor=none;whiteSpace=wrap;align=center;verticalAlign=middle;fontColor=#0000EE;fontStyle=4;fontSize=20;" vertex="1" parent="ZQMXC3zUCRYEKw2udhes-150">
            <mxGeometry x="2290" y="2410" width="490" height="50" as="geometry" />
          </mxCell>
        </UserObject>
        <mxCell id="MUtR5dcC4J1pQOiIU3f5-37" value="Option 1" style="fillColor=none;strokeColor=none;align=left;fontSize=20;fontStyle=2" vertex="1" parent="ZQMXC3zUCRYEKw2udhes-150">
          <mxGeometry x="2930" y="2417.5" width="270" height="35" as="geometry" />
        </mxCell>
        <UserObject label="&lt;span style=&quot;font-size: 20px ; font-style: italic ; text-align: left&quot;&gt;&lt;font color=&quot;#3333ff&quot; style=&quot;font-size: 20px&quot;&gt;0x0845708e426B70e15839a9F579E9a3ACbs2L3iAa3&lt;/font&gt;&lt;/span&gt;" link="0x03a708e426B70e15839a9F579E95C6ACbca7F345" id="MUtR5dcC4J1pQOiIU3f5-39">
          <mxCell style="text;html=1;strokeColor=none;fillColor=none;whiteSpace=wrap;align=center;verticalAlign=middle;fontColor=#0000EE;fontStyle=4;fontSize=20;" vertex="1" parent="ZQMXC3zUCRYEKw2udhes-150">
            <mxGeometry x="2290" y="2470" width="490" height="50" as="geometry" />
          </mxCell>
        </UserObject>
        <mxCell id="MUtR5dcC4J1pQOiIU3f5-40" value="Option 2, Option 3" style="fillColor=none;strokeColor=none;align=left;fontSize=20;fontStyle=2" vertex="1" parent="ZQMXC3zUCRYEKw2udhes-150">
          <mxGeometry x="2920" y="2477.5" width="270" height="35" as="geometry" />
        </mxCell>
      </root>
    </mxGraphModel>
  </diagram>
</mxfile>
